<?xml version="1.0" encoding="UTF-8" standalone="no"?>
<!-- Created with Inkscape (http://www.inkscape.org/) -->

<svg
   width="512"
   height="512"
   viewBox="0 0 135.46666 135.46667"
   version="1.1"
   id="svg1"
   xml:space="preserve"
   inkscape:version="1.3.2 (091e20e, 2023-11-25, custom)"
   sodipodi:docname="LuxuryLogo.svg"
   inkscape:export-filename="LuxuryLogo.svg"
   inkscape:export-xdpi="96"
   inkscape:export-ydpi="96"
   xmlns:inkscape="http://www.inkscape.org/namespaces/inkscape"
   xmlns:sodipodi="http://sodipodi.sourceforge.net/DTD/sodipodi-0.dtd"
   xmlns="http://www.w3.org/2000/svg"
   xmlns:svg="http://www.w3.org/2000/svg"><sodipodi:namedview
     id="namedview1"
     pagecolor="#ffffff"
     bordercolor="#000000"
     borderopacity="0.25"
     inkscape:showpageshadow="2"
     inkscape:pageopacity="0.0"
     inkscape:pagecheckerboard="0"
     inkscape:deskcolor="#d1d1d1"
     inkscape:document-units="mm"
     showguides="false"
     inkscape:zoom="0.32"
     inkscape:cx="20.3125"
     inkscape:cy="260.9375"
     inkscape:window-width="1920"
     inkscape:window-height="991"
     inkscape:window-x="-9"
     inkscape:window-y="-9"
     inkscape:window-maximized="1"
     inkscape:current-layer="layer1" /><defs
     id="defs1"><inkscape:path-effect
       effect="fill_between_many"
       method="originald"
       linkedpaths="#path176,0,1|#rect174,0,1|"
       id="path-effect176" /></defs><g
     inkscape:label="Layer 1"
     inkscape:groupmode="layer"
     id="layer1"><path
       style="fill:#216589;stroke:none;stroke-width:1"
       d="M 50.609738,7.2635115 50.349792,7.5220627 50.609738,7.2635115"
       id="path5" /><g
       id="g54"
       transform="matrix(0.34299281,0,0,0.34274549,-5.2298969,41.412165)"
       style="stroke-width:2.91658"><path
         d="M 69.849399,19.738841 C 55.319185,19.635991 40.396685,23.011148 25.04671,30.172403 l 0.107249,55.051248 c 1.426205,7.994417 6.884128,13.244477 13.703038,17.568959 9.003541,7.22999 19.614621,12.86142 29.654588,19.06054 10.713596,-6.25469 21.521558,-12.18075 31.688595,-20.33815 7.40987,-4.718614 10.88316,-10.369653 12.31192,-16.504703 L 112.29759,30.172403 C 98.517495,23.422572 84.379613,19.841698 69.849399,19.738841 Z m -0.106623,5.106001 c 13.077193,0.09257 25.801032,3.314662 38.203124,9.389509 l 0.19293,49.354422 c -1.28588,5.521544 -4.41184,10.607289 -11.080731,14.854047 -9.150331,7.34165 -18.877624,12.67511 -28.519861,18.30433 C 59.502268,111.16794 49.952486,106.09991 41.8493,99.592916 35.71228,95.700885 30.800022,90.975639 29.516439,83.780665 L 29.419972,34.234351 C 43.234949,27.789223 56.66558,24.75227 69.742774,24.844842 Z"
         style="fill:#f8ba17;stroke-width:0.291658;stroke-linecap:round;stroke-linejoin:round;stroke-miterlimit:12.5;stroke-dashoffset:0.19578;paint-order:markers stroke fill"
         id="path22" /><path
         d="m 69.646315,29.439547 c -11.769473,-0.08332 -23.856854,2.650259 -36.29033,8.450875 l 0.08631,44.591809 c 1.155226,6.475477 5.576448,10.728197 11.099766,14.231026 7.292859,5.856293 15.887933,10.417263 24.020298,15.438563 8.678021,-5.0663 17.432507,-9.86629 25.667811,-16.473777 6.00199,-3.822082 8.81536,-8.399379 9.97265,-13.368768 L 104.02893,37.890422 C 92.867054,32.423059 81.41579,29.52286 69.646315,29.439547 Z"
         style="fill:#4aadd4;stroke-width:0.291658;stroke-linecap:round;stroke-linejoin:round;stroke-miterlimit:12.5;stroke-dashoffset:0.19578;paint-order:markers stroke fill"
         id="path24" /><path
         id="path27"
         style="fill:#094474;fill-opacity:1;stroke-width:0.291658;stroke-linecap:round;stroke-linejoin:round;stroke-miterlimit:12.5;stroke-dashoffset:0.19578;paint-order:markers stroke fill"
         d="M 56.792556,49.477068 75.919258,29.752059 c 2.484231,0.228373 4.620795,0.554028 6.623553,0.917124 L 93.666282,45.552369 90.261348,48.069912 78.43338,32.244112 58.411812,51.171584 Z M 33.355986,66.531208 52.525717,49.920068 67.359032,65.00345 69.861368,63.153274 52.525717,45.011924 33.403592,62.485033 Z m 2.337813,21.88492 68.335131,-50.525709 0.0271,6.922951 -65.010604,47.698419 C 37.682678,91.229322 36.595307,89.854045 35.693799,88.416128 Z M 69.742781,24.844842 c -13.077194,-0.09257 -26.507824,2.944381 -40.322802,9.389509 l 0.09647,49.546314 c 1.283584,7.194974 6.195842,11.92022 12.332861,15.812251 8.103186,6.506994 17.652969,11.575024 26.688939,17.154234 9.642237,-5.62922 19.369529,-10.96268 28.51986,-18.30433 6.668881,-4.246758 9.794841,-9.332503 11.080721,-14.854047 L 107.9459,34.234351 C 95.543815,28.159504 82.819976,24.937412 69.742783,24.844842 Z m -0.09647,4.594705 c 11.769474,0.08332 23.220739,2.983512 34.382619,8.450875 l 0.17389,44.418853 c -1.15729,4.969389 -3.97066,9.546686 -9.972654,13.368768 C 85.994864,102.28553 77.240378,107.08552 68.562358,112.15182 60.429992,107.13052 51.834919,102.56955 44.54206,96.713257 39.047136,93.24476 34.629821,88.996763 33.442294,82.482231 l -0.08631,-44.591809 c 12.433476,-5.800616 24.520857,-8.534189 36.29033,-8.450875 z" /><path
         d="m 92.683956,57.08328 -0.491279,0.334478 -0.49066,0.335123 -4.729106,3.626749 -4.729121,3.627382 -4.811448,3.692165 -4.811448,3.692167 -2.389579,1.859763 -2.388927,1.859152 -1.326468,1.000326 -1.326452,0.999694 -3.34488,2.578679 -3.344241,2.578695 -3.197219,2.443612 -3.197837,2.442967 -0.166043,0.399795 -0.166683,0.399772 -0.01303,0.495976 -0.01303,0.495974 0.506007,0.530355 0.506007,0.530355 0.685804,0.01796 0.685805,0.01796 1.78455,-1.376078 1.783898,-1.375465 0.184617,0.0049 0.185252,0.0049 -0.25342,2.903078 -0.253416,2.90308 0.547861,0.7253 0.548498,0.725316 0.71499,0.01865 0.715622,0.01868 0.560238,-0.566942 0.560255,-0.567572 0.205609,-4.586491 0.205625,-4.587122 0.712465,-0.561709 0.711846,-0.562353 2.452216,-1.875811 2.452216,-1.875812 1.3326,-1.064574 1.333219,-1.063924 0.247421,0.0065 0.248057,0.0065 -0.212053,1.739778 -0.212069,1.740409 -0.391288,4.211621 -0.391905,4.210974 -3.713538,3.441083 -3.713524,3.44045 -0.01611,0.711219 -0.01676,0.710567 0.506007,0.530357 0.506641,0.530371 0.721969,0.01885 0.721968,0.01884 1.726466,-1.654165 1.725849,-1.654815 0.50323,-0.257759 0.502611,-0.258407 -0.240632,2.609791 -0.24128,2.610406 0.507242,0.53165 0.507878,0.53167 0.714581,0.0102 0.714572,0.0102 0.506583,-0.36122 0.506568,-0.36061 0.259425,-2.262006 0.258789,-2.262023 0.04069,-0.774983 0.04006,-0.774998 1.322234,1.576483 1.322233,1.576487 0.918277,1.003957 0.918294,1.003333 0.724507,0.0189 0.725138,0.0189 0.486407,-0.4148 0.486421,-0.415428 0.01914,-0.80017 0.01902,-0.800175 -2.052122,-2.381043 -2.052103,-2.381675 -1.197196,-1.333905 -1.197194,-1.333904 0.281475,-2.56958 0.281474,-2.569576 0.258222,-3.303288 0.257586,-3.303306 0.204163,0.08236 0.204146,0.08298 3.552086,4.586666 3.552086,4.586666 -0.311756,5.219584 -0.311738,5.218953 0.60536,0.445811 0.605994,0.445823 0.542428,0.01413 0.543063,0.01414 0.556278,-0.488745 0.555645,-0.488763 0.247844,-2.78767 0.247863,-2.788302 0.05754,-0.208767 0.05755,-0.209401 1.636373,2.063946 1.636372,2.063948 0.82075,0.100976 0.821369,0.101631 0.549429,-0.517969 0.548809,-0.51862 0.0158,-0.60009 0.0158,-0.600092 -0.690661,-0.944348 -0.690013,-0.944964 -1.112455,-1.36958 -1.113074,-1.370228 3.509184,0.276575 3.508529,0.27719 0.443568,-0.596508 0.443551,-0.595873 0.01121,-0.42467 0.01121,-0.424672 -0.49323,-0.658312 -0.493741,-0.658849 -3.314572,-0.38642 -3.31457,-0.386421 -1.684806,-0.196768 -1.685461,-0.196155 -3.60144,-4.617 -3.601427,-4.61763 0.115241,-0.108762 0.11521,-0.108128 5.929622,0.817732 5.928968,0.818347 0.75763,0.860219 0.757642,0.859588 2.522179,2.974868 2.522177,2.97487 0.885634,-0.04887 0.885653,-0.04951 0.543789,-0.689873 0.544405,-0.689222 -0.262386,-0.596615 -0.262402,-0.595983 -1.824943,-2.063184 -1.82558,-2.063201 0.09922,-0.0795 0.0992,-0.07887 1.553509,0.240702 1.554127,0.241351 1.348842,0.05666 1.348827,0.05729 0.41985,-0.563658 0.41987,-0.564292 0.0147,-0.543294 0.0148,-0.543927 -0.57091,-0.549099 -0.5709,-0.549097 -2.719895,-0.379743 -2.720522,-0.379761 -0.06612,-0.06867 -0.06675,-0.0693 2.533254,-1.963993 2.532633,-1.96464 0.15905,-0.567937 0.15964,-0.56729 -0.30509,-0.614147 -0.305097,-0.614147 -0.280495,-0.197382 -0.281131,-0.1974 -0.658426,-0.02097 -0.657809,-0.02034 -3.711241,3.01555 -3.711262,3.016181 -1.556094,-0.142266 -1.556747,-0.141646 -4.859694,-0.607961 -4.859695,-0.60796 0.0044,-0.172897 0.0044,-0.172267 0.623346,-0.383439 0.623996,-0.384053 1.197705,-0.956327 1.19707,-0.956344 1.790259,-1.37593 1.790259,-1.37593 0.998441,-0.8144 0.998444,-0.814401 0.466929,0.01218 0.466299,0.01217 4.212128,0.922572 4.211479,0.923183 0.667882,-0.411321 0.667867,-0.410692 0.179993,-0.640639 0.179342,-0.640027 -0.392866,-0.63222 -0.392865,-0.632222 -1.752634,-0.442278 -1.752649,-0.441645 -1.359974,-0.21292 -1.359356,-0.212272 0.01443,-0.160644 0.01441,-0.16001 1.845391,-1.34797 1.84539,-1.347971 0.02229,-0.848081 0.02228,-0.848078 -0.397266,-0.416383 -0.39727,-0.416384 -0.613241,-0.170074 z"
         id="path32"
         style="fill:#ffffff;stroke-width:2.91658" /><path
         d="m 51.444099,53.435999 -2.039716,1.857702 -2.039717,1.857702 0.312875,0.375581 0.313509,0.374949 -2.110796,1.736508 -2.110161,1.736506 0.128831,0.489834 0.128831,0.489832 -1.665282,1.454348 -1.664647,1.454349 v 0.22661 0.227242 h 0.987491 0.987492 l 0.319857,-0.317507 0.319221,-0.318139 -0.07235,0.63817 -0.07235,0.63754 0.909431,0.162857 0.910067,0.162857 0.26972,0.03408 0.26972,0.03409 1.260385,-1.272555 1.260385,-1.273185 -0.145331,-0.553587 -0.145967,-0.554218 1.495834,-1.534514 1.495201,-1.533883 h 0.289394 0.288758 l 0.170717,0.274584 0.170717,0.275216 -0.459476,0.504981 -0.46011,0.504983 0.69429,0.720861 0.694291,0.720862 v 0.386312 0.386943 l -0.314773,0.31309 -0.314779,0.313089 0.511516,0.509401 0.51215,0.508769 1.59928,-1.417106 1.59928,-1.416474 h 0.276702 0.277335 l 2.800643,1.350826 2.800645,1.351459 0.194833,0.09216 0.194833,0.09279 -0.0038,-0.21588 -0.0032,-0.215248 -2.548058,-2.650525 -2.54806,-2.649894 h 0.342068 0.342069 V 59.5507 59.331663 l -3.003712,-2.947832 -3.004362,-2.947832 h -0.200545 z"
         id="path31"
         style="fill:#ffffff;stroke-width:2.91658" /><path
         d="m 77.451569,36.832564 -0.774256,0.737904 -0.774889,0.737906 -0.541343,1.113485 -0.541979,1.113486 -1.266096,0.970196 -1.266097,0.970828 -0.01081,0.641327 -0.01142,0.641328 -2.268819,2.267369 -2.269456,2.26737 h 0.302086 0.302722 l 1.2515,-0.749267 1.252134,-0.749268 1.819498,-1.037738 1.820133,-1.037107 0.186583,0.493621 0.186583,0.49425 h 0.246873 0.246874 l 0.586402,-0.943054 0.586403,-0.943684 0.592114,0.684881 0.592114,0.684882 0.207526,-6.32e-4 0.207526,-6.3e-4 0.73808,-1.16209 0.738081,-1.161459 0.264643,-0.162857 0.264642,-0.162856 -0.168813,0.528338 -0.168178,0.528336 2.414786,1.679065 2.415421,1.679697 0.105346,-0.104157 0.105346,-0.103522 -1.662743,-1.877903 -1.662744,-1.87727 -0.268451,-0.258173 -0.26845,-0.258803 -0.51342,-0.625547 -0.514054,-0.625546 0.446783,0.161595 0.446784,0.162225 0.121212,-0.195049 0.121213,-0.195681 -1.253404,-1.460661 -1.25277,-1.460029 -0.55594,-0.702557 z"
         id="path30"
         style="fill:#ffffff;stroke-width:2.91658" /></g><g
       id="g55"
       transform="translate(-10.054167,-4.7625)"
       style="fill:#4aadd4;fill-opacity:1"><path
         style="font-weight:600;font-size:16.9333px;line-height:0em;font-family:Raleway;-inkscape-font-specification:'Raleway Semi-Bold';letter-spacing:0px;word-spacing:0px;text-orientation:upright;stroke-width:0.1;stroke-linecap:round;stroke-linejoin:round;stroke-miterlimit:12.5;stroke-dashoffset:0.19578;paint-order:markers stroke fill;fill:#4aadd4;fill-opacity:1"
         d="M 133.52116,73.702318 V 61.679675 h 5.23239 q 0.8128,0 1.49013,0.338666 0.67733,0.338666 1.1684,0.897465 0.508,0.558799 0.77893,1.253064 0.28787,0.694265 0.28787,1.422397 0,0.795865 -0.28787,1.523997 -0.28786,0.728132 -0.82973,1.253064 -0.52493,0.524933 -1.23613,0.761999 l 2.82786,4.571991 h -2.1336 l -2.60772,-4.182525 h -2.794 v 4.182525 z m 1.89653,-5.858922 h 3.31893 q 0.52493,0 0.93133,-0.304799 0.4064,-0.3048 0.64347,-0.812799 0.23706,-0.524932 0.23706,-1.134531 0,-0.626532 -0.27093,-1.117598 -0.27093,-0.507999 -0.7112,-0.812798 -0.42333,-0.304799 -0.93133,-0.304799 h -3.21733 z"
         id="path53" /><path
         style="font-weight:600;font-size:16.9333px;line-height:0em;font-family:Raleway;-inkscape-font-specification:'Raleway Semi-Bold';letter-spacing:0px;word-spacing:0px;text-orientation:upright;stroke-width:0.1;stroke-linecap:round;stroke-linejoin:round;stroke-miterlimit:12.5;stroke-dashoffset:0.19578;paint-order:markers stroke fill;fill:#4aadd4;fill-opacity:1"
         d="M 128.91532,73.702318 V 61.679675 h 1.89653 v 12.022643 z"
         id="path52" /><path
         style="font-weight:600;font-size:16.9333px;line-height:0em;font-family:Raleway;-inkscape-font-specification:'Raleway Semi-Bold';letter-spacing:0px;word-spacing:0px;text-orientation:upright;stroke-width:0.1;stroke-linecap:round;stroke-linejoin:round;stroke-miterlimit:12.5;stroke-dashoffset:0.19578;paint-order:markers stroke fill;fill:#4aadd4;fill-opacity:1"
         d="m 120.95668,61.679675 h 1.79493 l 4.67359,12.022643 h -1.99813 l -1.27,-3.268127 h -4.63972 l -1.25307,3.268127 h -2.01506 z m 2.82786,7.349052 -1.9304,-5.266256 -1.99813,5.266256 z"
         id="path51" /><path
         style="font-weight:600;font-size:16.9333px;line-height:0em;font-family:Raleway;-inkscape-font-specification:'Raleway Semi-Bold';letter-spacing:0px;word-spacing:0px;text-orientation:upright;stroke-width:0.1;stroke-linecap:round;stroke-linejoin:round;stroke-miterlimit:12.5;stroke-dashoffset:0.19578;paint-order:markers stroke fill;fill:#4aadd4;fill-opacity:1"
         d="m 104.20602,61.679675 3.31893,5.977455 3.35279,-5.977455 h 2.0828 l -4.48733,7.721585 v 4.301058 h -1.89653 v -4.334925 l -4.45346,-7.687718 z"
         id="path50" /><path
         style="font-weight:600;font-size:16.9333px;line-height:0em;font-family:Raleway;-inkscape-font-specification:'Raleway Semi-Bold';letter-spacing:0px;word-spacing:0px;text-orientation:upright;stroke-width:0.1;stroke-linecap:round;stroke-linejoin:round;stroke-miterlimit:12.5;stroke-dashoffset:0.19578;paint-order:markers stroke fill;fill:#4aadd4;fill-opacity:1"
         d="M 92.697699,73.702318 V 61.679675 h 5.23239 q 0.8128,0 1.49013,0.338666 0.677341,0.338666 1.168401,0.897465 0.508,0.558799 0.77893,1.253064 0.28787,0.694265 0.28787,1.422397 0,0.795865 -0.28787,1.523997 -0.28786,0.728132 -0.82973,1.253064 -0.52493,0.524933 -1.236131,0.761999 l 2.827861,4.571991 h -2.133591 l -2.60773,-4.182525 h -2.794 v 4.182525 z m 1.89653,-5.858922 h 3.31893 q 0.52493,0 0.93133,-0.304799 0.4064,-0.3048 0.64347,-0.812799 0.23706,-0.524932 0.23706,-1.134531 0,-0.626532 -0.27093,-1.117598 -0.27093,-0.507999 -0.7112,-0.812798 -0.42333,-0.304799 -0.93133,-0.304799 h -3.21733 z"
         id="path49" /><path
         style="font-weight:600;font-size:16.9333px;line-height:0em;font-family:Raleway;-inkscape-font-specification:'Raleway Semi-Bold';letter-spacing:0px;word-spacing:0px;text-orientation:upright;stroke-width:0.1;stroke-linecap:round;stroke-linejoin:round;stroke-miterlimit:12.5;stroke-dashoffset:0.19578;paint-order:markers stroke fill;fill:#4aadd4;fill-opacity:1"
         d="m 84.976099,73.786988 q -1.43933,0 -2.43839,-0.491065 -0.98213,-0.491066 -1.59173,-1.337731 -0.59267,-0.846665 -0.88053,-1.930396 -0.27094,-1.083731 -0.27094,-2.252129 v -6.095988 h 1.89653 v 6.095988 q 0,0.829732 0.16934,1.608663 0.16933,0.761999 0.54186,1.371598 0.37254,0.609599 0.99907,0.965198 0.64346,0.355599 1.57479,0.355599 0.94827,0 1.5748,-0.355599 0.64347,-0.372533 0.99907,-0.982132 0.37253,-0.626532 0.54186,-1.38853 0.16933,-0.761999 0.16933,-1.574797 v -6.095988 h 1.91347 v 6.095988 q 0,1.236131 -0.3048,2.336795 -0.28787,1.083732 -0.9144,1.913463 -0.6096,0.812799 -1.59173,1.286931 -0.98213,0.474132 -2.3876,0.474132 z"
         id="path48" /><path
         style="font-weight:600;font-size:16.9333px;line-height:0em;font-family:Raleway;-inkscape-font-specification:'Raleway Semi-Bold';letter-spacing:0px;word-spacing:0px;text-orientation:upright;stroke-width:0.1;stroke-linecap:round;stroke-linejoin:round;stroke-miterlimit:12.5;stroke-dashoffset:0.19578;paint-order:markers stroke fill;fill:#4aadd4;fill-opacity:1"
         d="m 69.871589,61.679679 3.31893,4.724391 3.31892,-4.724391 h 2.09973 l -4.33492,6.095988 c 4.48869,9.7902 22.46168,6.076524 19.05163,7.007445 0,0 -9.54794,1.481519 -14.07568,-0.499902 -4.52774,-1.981421 -6.05968,-5.135946 -6.05968,-5.135946 l -3.18346,4.555058 h -2.11667 l 4.19946,-5.926655 -4.33492,-6.095988 z"
         id="path47"
         sodipodi:nodetypes="cccccczcccccc" /><path
         style="font-weight:600;font-size:16.9333px;line-height:0em;font-family:Raleway;-inkscape-font-specification:'Raleway Semi-Bold';letter-spacing:0px;word-spacing:0px;text-orientation:upright;stroke-width:0.1;stroke-linecap:round;stroke-linejoin:round;stroke-miterlimit:12.5;stroke-dashoffset:0.19578;paint-order:markers stroke fill;fill:#4aadd4;fill-opacity:1"
         d="m 61.387989,73.786988 q -1.43933,0 -2.43839,-0.491065 -0.98213,-0.491066 -1.59173,-1.337731 -0.59267,-0.846665 -0.88054,-1.930396 -0.27093,-1.083731 -0.27093,-2.252129 v -6.095988 h 1.89653 v 6.095988 q 0,0.829732 0.16933,1.608663 0.16934,0.761999 0.54187,1.371598 0.37253,0.609599 0.99906,0.965198 0.64347,0.355599 1.5748,0.355599 0.94827,0 1.5748,-0.355599 0.64346,-0.372533 0.99906,-0.982132 0.37254,-0.626532 0.54187,-1.38853 0.16933,-0.761999 0.16933,-1.574797 v -6.095988 h 1.91346 v 6.095988 q 0,1.236131 -0.30479,2.336795 -0.28787,1.083732 -0.9144,1.913463 -0.6096,0.812799 -1.59173,1.286931 -0.98213,0.474132 -2.3876,0.474132 z"
         id="path46" /><path
         style="font-weight:600;font-size:16.9333px;line-height:0em;font-family:Raleway;-inkscape-font-specification:'Raleway Semi-Bold';letter-spacing:0px;word-spacing:0px;text-orientation:upright;stroke-width:0.1;stroke-linecap:round;stroke-linejoin:round;stroke-miterlimit:12.5;stroke-dashoffset:0.19578;paint-order:markers stroke fill;fill:#4aadd4;fill-opacity:1"
         d="M 46.858919,73.702318 V 61.679675 h 1.89653 v 10.346246 h 6.45159 v 1.676397 z"
         id="text46" /></g><rect
       style="fill:#f8ba17;stroke-width:0.1;stroke-linecap:round;stroke-linejoin:round;stroke-miterlimit:12.5;stroke-dashoffset:0.19578;paint-order:markers stroke fill;fill-opacity:1"
       id="rect1"
       width="11.46514"
       height="15.286854"
       x="-18.738724"
       y="30.327143"
       ry="4.1246567"
       rx="0" /><rect
       style="fill:#094474;fill-opacity:1;stroke-width:0.1;stroke-linecap:round;stroke-linejoin:round;stroke-miterlimit:12.5;stroke-dashoffset:0.19578;paint-order:markers stroke fill"
       id="rect2"
       width="11.46514"
       height="15.286854"
       x="-18.738724"
       y="55.265797"
       ry="4.1246567"
       rx="0" /><rect
       style="fill:#4aadd4;fill-opacity:1;stroke-width:0.1;stroke-linecap:round;stroke-linejoin:round;stroke-miterlimit:12.5;stroke-dashoffset:0.19578;paint-order:markers stroke fill"
       id="rect3"
       width="11.46514"
       height="15.286854"
       x="-18.738724"
       y="78.08284"
       ry="4.1246567"
       rx="0" /><text
       xml:space="preserve"
       style="font-weight:600;font-size:3.70417px;line-height:0em;font-family:Raleway;-inkscape-font-specification:'Raleway Semi-Bold';letter-spacing:0px;word-spacing:0px;text-orientation:upright;fill:#4aadd4;fill-opacity:1;stroke-width:0.1;stroke-linecap:round;stroke-linejoin:round;stroke-miterlimit:12.5;stroke-dashoffset:0.19578;paint-order:markers stroke fill"
       x="-18.835032"
       y="27.121838"
       id="text3"><tspan
         sodipodi:role="line"
         id="tspan3"
         style="font-size:3.70417px;stroke-width:0.1"
         x="-18.835032"
         y="27.121838">f8ba17ff</tspan></text><text
       xml:space="preserve"
       style="font-weight:600;font-size:3.70417px;line-height:0em;font-family:Raleway;-inkscape-font-specification:'Raleway Semi-Bold';letter-spacing:0px;word-spacing:0px;text-orientation:upright;fill:#4aadd4;fill-opacity:1;stroke-width:0.1;stroke-linecap:round;stroke-linejoin:round;stroke-miterlimit:12.5;stroke-dashoffset:0.19578;paint-order:markers stroke fill"
       x="-18.835032"
       y="52.147896"
       id="text4"><tspan
         sodipodi:role="line"
         id="tspan4"
         style="font-size:3.70417px;stroke-width:0.1"
         x="-18.835032"
         y="52.147896">094474ff</tspan></text><text
       xml:space="preserve"
       style="font-weight:600;font-size:3.70417px;line-height:0em;font-family:Raleway;-inkscape-font-specification:'Raleway Semi-Bold';letter-spacing:0px;word-spacing:0px;text-orientation:upright;fill:#4aadd4;fill-opacity:1;stroke-width:0.1;stroke-linecap:round;stroke-linejoin:round;stroke-miterlimit:12.5;stroke-dashoffset:0.19578;paint-order:markers stroke fill"
       x="-18.835032"
       y="75.078178"
       id="text5"><tspan
         sodipodi:role="line"
         id="tspan5"
         style="font-size:3.70417px;stroke-width:0.1"
         x="-18.835032"
         y="75.078178">4aadd4ff</tspan><tspan
         sodipodi:role="line"
         style="font-size:3.70417px;stroke-width:0.1"
         x="-18.835032"
         y="75.078178"
         id="tspan6" /></text></g></svg>
